# Blender v2.73 (sub 0) OBJ File: 'objects.blend'
# www.blender.org
mtllib floor.mtl
o Plane.010_Plane.001
v -4.000000 -3.371973 -0.030132
v 4.000000 -3.371973 -0.009191
v -4.000000 4.628027 0.104502
v 4.000000 4.628027 -0.028015
v -4.000000 0.628027 0.036323
v 0.000000 -3.371973 0.026094
v 4.000000 0.628027 -0.289845
v 0.000000 4.628027 0.112743
v 0.000000 0.628027 -0.199527
v -4.000000 -1.371973 0.121505
v 2.000000 -3.371973 0.060701
v 4.000000 2.628027 0.092807
v -2.000000 4.628027 0.049645
v -4.000000 2.628027 0.088101
v -2.000000 -3.371973 -0.015783
v 4.000000 -1.371973 -0.014016
v 2.000000 4.628027 -0.046321
v 0.000000 2.628027 -0.032678
v 0.000000 -1.371973 0.001712
v -2.000000 0.628027 -0.032774
v 2.000000 0.628027 -0.045530
v 2.000000 -1.581739 0.092985
v -2.000000 -1.371973 0.029892
v -2.000000 2.628027 -0.051757
v 2.000000 2.628027 -0.042799
v -4.000000 -2.371973 -0.038937
v 3.000000 -3.371973 -0.045186
v 4.000000 3.628027 0.038523
v -3.000000 4.628027 -0.050299
v -4.000000 1.628027 -0.071175
v -1.000000 -3.371973 0.109808
v 4.000000 -0.371973 -0.005105
v 1.000000 4.628027 -0.014390
v 0.000000 3.628027 -0.042622
v 0.000000 -0.371973 0.109315
v -3.000000 0.628027 0.075638
v 1.000000 0.628027 -0.080880
v -4.000000 -0.371973 0.008092
v 1.000000 -3.371973 0.027979
v 4.000000 1.628027 -0.225615
v -1.000000 4.628027 0.029435
v -4.000000 3.628027 0.112413
v -3.000000 -3.371973 -0.005445
v 4.000000 -2.371973 0.003795
v 3.000000 4.628027 -0.021559
v 0.000000 1.628027 -0.045717
v 0.000000 -2.371973 -0.064167
v -1.000000 0.628027 0.027059
v 3.000000 0.628027 -0.472181
v 2.000000 -0.371973 -0.085097
v 2.000000 -2.371973 -0.071192
v 1.000000 -1.371973 -0.097798
v 3.000000 -1.371973 -0.019296
v -2.000000 -0.371973 0.018970
v -2.000000 -2.371973 -0.057749
v -3.000000 -1.371973 -0.059497
v -1.000000 -1.371973 0.080158
v -2.000000 3.628027 -0.026560
v -2.000000 1.628027 0.045230
v -3.000000 2.628027 -0.010163
v -1.000000 2.628027 -0.012111
v 2.000000 3.628027 -0.068126
v 2.000000 1.628027 -0.257007
v 1.000000 2.628027 -0.019867
v 3.000000 2.628027 -0.079638
v 3.000000 1.628027 -0.232966
v 1.000000 1.628027 0.061816
v 1.000000 3.628027 -0.065766
v -1.000000 1.628027 -0.095453
v -3.000000 1.628027 0.023203
v -3.000000 3.628027 -0.017739
v -1.000000 -2.371973 0.057530
v -3.000000 -2.371973 0.012291
v -3.000000 -0.371973 -0.018451
v 3.000000 -2.371973 0.092637
v 1.000000 -2.371973 0.110211
v 1.000000 -0.371973 0.092321
v 3.000000 -0.371973 -0.016011
v -1.000000 -0.371973 -0.070674
v -1.000000 3.628027 -0.029734
v 3.000000 3.628027 -0.000605
vn -0.039000 0.066300 0.997000
vn -0.082000 -0.153000 0.984800
vn 0.211600 0.288400 0.933800
vn -0.010500 0.273800 0.961700
vn -0.035300 -0.039500 0.998600
vn 0.174900 -0.200300 0.964000
vn -0.005300 0.017800 0.999800
vn -0.037300 0.051600 0.998000
vn -0.088700 -0.087000 0.992300
vn 0.120500 -0.065300 0.990600
vn -0.099200 -0.075600 0.992200
vn 0.041400 0.096500 0.994500
vn 0.020600 -0.013000 0.999700
vn 0.002400 -0.021800 0.999800
vn 0.297600 -0.200000 0.933500
vn -0.162100 -0.299400 0.940300
vn -0.023800 -0.151500 0.988200
vn 0.383300 -0.214900 0.898300
vn -0.007300 -0.064100 0.997900
vn -0.106600 0.080900 0.991000
vn -0.105900 -0.140500 0.984400
vn 0.297800 0.197500 0.934000
vn 0.023100 -0.051300 0.998400
vn 0.023100 0.045800 0.998700
vn 0.002400 0.025300 0.999700
vn -0.039500 -0.083000 0.995800
vn 0.138300 0.120400 0.983000
vn 0.218500 -0.148300 0.964500
vn -0.093900 0.033200 0.995000
vn -0.039200 0.052300 0.997900
vn 0.107500 -0.077300 0.991200
vn 0.152900 0.032200 0.987700
vn 0.097800 0.007500 0.995200
vn 0.041500 -0.025200 0.998800
vn -0.050200 -0.022600 0.998500
vn -0.124400 0.051800 0.990900
vn 0.120300 0.089200 0.988700
vn -0.051000 0.071500 0.996100
vn -0.051200 -0.017700 0.998500
vn 0.069800 0.041800 0.996700
vn -0.039100 -0.093600 0.994800
vn 0.026500 -0.041000 0.998800
vn -0.037400 0.010900 0.999200
vn 0.087900 0.110800 0.989900
vn -0.160200 -0.134800 0.977800
vn -0.036000 -0.013000 0.999300
vn -0.168300 0.200700 0.965100
vn -0.001900 -0.082000 0.996600
vn 0.177000 0.128700 0.975800
vn 0.016700 0.170600 0.985200
vn 0.097300 -0.185900 0.977700
vn -0.156300 0.143800 0.977200
vn 0.361900 0.386900 0.848200
vn -0.068900 -0.003300 0.997600
vn -0.010900 -0.008900 0.999900
vn 0.088900 -0.096900 0.991300
vn 0.088300 0.148600 0.985000
vn 0.077800 -0.106700 0.991300
vn 0.003200 -0.059100 0.998200
vn 0.003200 0.017600 0.999800
vn 0.012900 0.009900 0.999900
vn -0.024700 0.020900 0.999500
vn -0.067200 -0.078600 0.994600
vn -0.039000 0.054200 0.997800
vn 0.006500 0.020900 0.999800
vn 0.012900 -0.059100 0.998200
vn -0.176300 -0.095700 0.979700
vn -0.163700 0.409400 0.897500
vn 0.172200 0.168100 0.970600
vn -0.142600 0.201600 0.969000
vn 0.107300 -0.093100 0.989900
vn 0.069700 0.071400 0.995000
vn 0.078200 -0.022600 0.996700
vn 0.008800 0.032500 0.999400
vn -0.022000 0.033300 0.999200
vn -0.049500 -0.083000 0.995300
vn 0.031900 -0.051300 0.998200
vn 0.022800 0.081400 0.996400
vn -0.007300 -0.151600 0.988400
vn 0.036000 -0.209300 0.977200
vn -0.023500 0.206800 0.978100
vn -0.174600 -0.229100 0.957600
vn -0.012800 -0.013000 0.999800
vn -0.116500 -0.151000 0.981700
vn -0.035000 -0.141200 0.989400
vn 0.124600 -0.152300 0.980400
vn -0.012800 0.009900 0.999900
vn 0.022900 0.045800 0.998700
vn 0.138700 0.095600 0.985700
vn -0.059500 -0.077600 0.995200
vn -0.049300 0.121500 0.991400
vn 0.096600 -0.156600 0.982900
vn -0.093400 0.106400 0.989900
vn -0.022000 0.052400 0.998400
vn 0.129100 0.007800 0.991600
vn 0.129000 -0.024100 0.991300
vn 0.008800 0.007600 0.999900
vn -0.114100 -0.086700 0.989700
vn -0.114400 0.041700 0.992600
vn 0.083300 0.052000 0.995200
vn 0.175900 -0.155900 0.972000
vn -0.024700 0.008800 0.999700
vn 0.010300 -0.017700 0.999800
vn 0.026500 -0.028200 0.999300
vn 0.177000 0.110900 0.977900
vn -0.089000 -0.040800 0.995200
vn -0.158400 -0.200800 0.966700
vn 0.104400 0.130000 0.986000
vn 0.087700 -0.136000 0.986800
vn 0.098800 -0.065400 0.993000
vn -0.171100 0.088600 0.981300
vn -0.032600 -0.081900 0.996100
vn -0.112600 0.293200 0.949400
vn 0.016900 -0.107000 0.994100
vn 0.171700 -0.184000 0.967800
vn -0.068900 -0.039400 0.996800
vn 0.080300 0.145200 0.986100
vn -0.005300 -0.003300 1.000000
vn -0.059600 0.051600 0.996900
vn -0.050200 0.010900 0.998700
vn -0.175200 0.146800 0.973500
vn 0.020100 -0.076000 0.996900
vn -0.039600 -0.025200 0.998900
vn 0.020600 0.017600 0.999600
vn -0.067400 -0.021700 0.997500
vn 0.036800 0.025300 0.999000
vn -0.169400 -0.077600 0.982500
usemtl None
s off
f 81//1 28//1 4//1
f 34//2 8//2 41//2
f 35//3 9//3 48//3
f 78//4 32//4 7//4
f 50//5 21//5 37//5
f 76//6 51//6 22//6
f 44//7 16//7 53//7
f 74//8 54//8 20//8
f 55//9 23//9 56//9
f 72//10 47//10 19//10
f 58//11 13//11 29//11
f 59//12 24//12 60//12
f 46//13 18//13 61//13
f 68//14 62//14 17//14
f 67//15 63//15 25//15
f 40//16 12//16 65//16
f 63//17 66//17 65//17
f 21//18 49//18 66//18
f 7//19 40//19 66//19
f 46//20 67//20 64//20
f 37//21 67//21 46//21
f 21//22 63//22 67//22
f 34//23 68//23 33//23
f 64//24 68//24 34//24
f 25//25 62//25 68//25
f 69//26 61//26 24//26
f 48//27 69//27 59//27
f 48//28 9//28 46//28
f 30//29 70//29 60//29
f 5//30 36//30 70//30
f 36//31 20//31 59//31
f 71//32 29//32 3//32
f 14//33 60//33 71//33
f 60//34 24//34 58//34
f 72//35 57//35 23//35
f 15//36 31//36 72//36
f 6//37 47//37 72//37
f 26//38 73//38 56//38
f 43//39 73//39 26//39
f 15//40 55//40 73//40
f 74//41 36//41 5//41
f 56//42 74//42 38//42
f 23//43 54//43 74//43
f 75//44 53//44 22//44
f 27//45 75//45 51//45
f 27//46 2//46 44//46
f 47//47 76//47 52//47
f 6//48 39//48 76//48
f 11//49 51//49 76//49
f 35//50 77//50 37//50
f 19//51 52//51 77//51
f 52//52 22//52 50//52
f 78//53 49//53 21//53
f 53//54 78//54 50//54
f 16//55 32//55 78//55
f 54//56 79//56 48//56
f 57//57 79//57 54//57
f 57//58 19//58 35//58
f 58//59 80//59 41//59
f 61//60 80//60 58//60
f 18//61 34//61 80//61
f 81//62 45//62 17//62
f 65//63 81//63 62//63
f 12//64 28//64 81//64
f 45//65 81//65 4//65
f 80//66 34//66 41//66
f 79//67 35//67 48//67
f 49//68 78//68 7//68
f 77//69 50//69 37//69
f 52//70 76//70 22//70
f 75//44 44//44 53//44
f 36//71 74//71 20//71
f 73//72 55//72 56//72
f 57//73 72//73 19//73
f 71//74 58//74 29//74
f 70//75 59//75 60//75
f 69//76 46//76 61//76
f 33//77 68//77 17//77
f 64//78 67//78 25//78
f 66//79 40//79 65//79
f 25//80 63//80 65//80
f 63//81 21//81 66//81
f 49//82 7//82 66//82
f 18//83 46//83 64//83
f 9//84 37//84 46//84
f 37//85 21//85 67//85
f 8//86 34//86 33//86
f 18//87 64//87 34//87
f 64//88 25//88 68//88
f 59//89 69//89 24//89
f 20//90 48//90 59//90
f 69//91 48//91 46//91
f 14//92 30//92 60//92
f 30//93 5//93 70//93
f 70//94 36//94 59//94
f 42//95 71//95 3//95
f 42//96 14//96 71//96
f 71//97 60//97 58//97
f 55//98 72//98 23//98
f 55//99 15//99 72//99
f 31//100 6//100 72//100
f 10//101 26//101 56//101
f 1//102 43//102 26//102
f 43//103 15//103 73//103
f 38//104 74//104 5//104
f 10//105 56//105 38//105
f 56//106 23//106 74//106
f 51//107 75//107 22//107
f 11//108 27//108 51//108
f 75//109 27//109 44//109
f 19//110 47//110 52//110
f 47//111 6//111 76//111
f 39//112 11//112 76//112
f 9//113 35//113 37//113
f 35//114 19//114 77//114
f 77//115 52//115 50//115
f 50//116 78//116 21//116
f 22//117 53//117 50//117
f 53//118 16//118 78//118
f 20//119 54//119 48//119
f 23//120 57//120 54//120
f 79//121 57//121 35//121
f 13//122 58//122 41//122
f 24//123 61//123 58//123
f 61//124 18//124 80//124
f 62//125 81//125 17//125
f 25//126 65//126 62//126
f 65//127 12//127 81//127
