# Blender v2.73 (sub 0) OBJ File: 'objects.blend'
# www.blender.org
mtllib house-walls.mtl
o Cube.003_Cube
v -2.994027 -2.330730 -0.084897
v -3.083680 -0.253050 -0.084897
v -0.952843 -0.382607 -0.084897
v -0.994027 -2.382607 -0.084897
v -3.110367 -2.382607 1.284125
v -2.994027 -0.382607 1.194673
v -0.994027 -0.300961 1.284125
v -0.952843 -2.293559 1.194674
vn -0.995100 0.054200 -0.082500
vn 0.999200 0.022200 -0.033700
vn 0.044000 -0.996700 0.067900
vn -0.000000 -0.000000 -1.000000
vn -0.042800 -0.045700 0.998000
vn 0.999300 -0.020600 0.031300
vn -0.025900 -0.998900 -0.040100
vn -0.996900 -0.043000 0.065500
vn -0.038000 0.997400 -0.060600
vn 0.060400 0.993500 0.096400
vn 0.039600 0.042300 0.998300
usemtl None
s off
f 5//1 6//1 1//1
f 7//2 8//2 4//2
f 4//3 8//3 5//3
f 1//4 2//4 3//4
f 7//5 6//5 8//5
f 7//6 4//6 3//6
f 5//7 1//7 4//7
f 6//8 2//8 1//8
f 6//9 7//9 3//9
f 6//10 3//10 2//10
f 5//11 8//11 6//11
f 4//4 1//4 3//4
