# Blender v2.73 (sub 0) OBJ File: 'objects.blend'
# www.blender.org
mtllib path.mtl
o Plane.008_Plane.003
v -0.847519 -1.507200 0.086564
v -0.664043 -1.756439 0.062347
v -0.618350 -1.516216 0.065266
v -0.428230 -1.434215 0.050247
v -0.439888 -1.744378 0.042133
v -0.523054 -2.143730 0.028063
v -0.215311 -2.118371 -0.003893
v -0.495231 -1.877249 0.038428
v -0.353378 -2.010275 0.016437
v -0.106297 -1.921110 -0.005768
v -0.248344 -1.781382 0.013984
v 0.078625 -1.798881 -0.021588
v -0.122001 -1.670492 0.012160
v -0.048921 -1.532875 0.018551
v 0.187696 -1.601834 -0.012896
v 0.080872 -2.103659 -0.045296
v 0.356326 -2.098036 -0.045296
v 0.181262 -1.993518 -0.045296
v 0.307966 -1.903873 -0.045296
v 0.535183 -1.949032 -0.045296
v 0.540867 -1.706613 -0.064670
v 0.731137 -1.642439 -0.063366
v 0.588017 -1.484715 -0.060159
v 0.762637 -1.464286 -0.059743
v 0.979207 -1.530726 -0.061094
v 1.213198 -1.779474 0.032484
v 1.389549 -1.803901 0.067993
v 1.117767 -1.567227 -0.023695
v 1.299286 -1.608462 0.015843
v 1.502090 -1.609309 0.051618
v 1.238544 -1.310879 -0.034652
v 1.563295 -1.320784 0.019373
v 1.432412 -1.207248 -0.025855
v 1.447134 -1.087873 -0.049062
v 1.671627 -1.124685 -0.005300
v 1.786835 -1.123390 0.016244
v 2.030423 -1.070511 0.021934
v 1.835912 -0.904181 -0.015712
v 2.069901 -0.773574 -0.022914
v 2.226033 -0.949635 0.014057
v -0.443200 -1.743309 0.006043
v -0.431542 -1.433147 0.014157
v -0.621662 -1.515148 0.029176
v -0.667355 -1.755371 0.026257
v -0.850831 -1.506132 0.050474
v 2.124445 -0.594865 -0.046336
v 2.452526 -0.619811 -0.031473
v 2.273620 -0.513135 -0.040226
v 2.328281 -0.307010 -0.039213
v 2.564481 -0.424229 -0.027823
v -0.526941 -2.141923 -0.007941
v -0.219199 -2.116565 -0.039897
v -0.499119 -1.875442 0.002424
v -0.357265 -2.008469 -0.019566
v -0.110184 -1.919304 -0.041771
v -0.252053 -1.777746 -0.021900
v 0.074916 -1.795245 -0.057471
v -0.125710 -1.666856 -0.023723
v -0.052631 -1.529239 -0.017333
v 0.183987 -1.598198 -0.048779
v 0.080872 -2.103659 -0.081554
v 0.356326 -2.098036 -0.081554
v 0.181262 -1.993518 -0.081554
v 0.307966 -1.903873 -0.081554
v 0.535183 -1.949032 -0.081554
v 0.540867 -1.705876 -0.100920
v 0.731137 -1.641702 -0.099616
v 0.588017 -1.483978 -0.096409
v 0.762637 -1.463549 -0.095993
v 0.979207 -1.529989 -0.097344
v 1.219368 -1.785998 -0.002644
v 1.395718 -1.810425 0.032865
v 1.123937 -1.573751 -0.058823
v 1.305455 -1.614986 -0.019285
v 1.508260 -1.615834 0.016490
v 1.244143 -1.318380 -0.069681
v 1.568894 -1.328285 -0.015656
v 1.438010 -1.214748 -0.060884
v 1.452733 -1.095373 -0.084091
v 1.677225 -1.132185 -0.040329
v 1.788902 -1.129065 -0.019507
v 2.032490 -1.076185 -0.013817
v 1.837979 -0.909856 -0.051463
v 2.071968 -0.779249 -0.058665
v 2.228100 -0.955310 -0.021694
v 2.126067 -0.595117 -0.082556
v 2.454148 -0.620063 -0.067694
v 2.275242 -0.513387 -0.076446
v 2.329902 -0.307263 -0.075434
v 2.566102 -0.424481 -0.064043
vn 0.091300 -0.029500 0.995400
vn 0.107200 -0.049800 0.993000
vn 0.102300 -0.100300 0.989700
vn -0.000000 0.000000 1.000000
vn 0.000000 -0.020300 0.999800
vn -0.170200 0.179900 0.968800
vn -0.154400 0.206900 0.966100
vn -0.057000 0.156500 0.986000
vn -0.091300 0.029500 -0.995400
vn -0.044700 0.007000 0.999000
vn -0.107200 0.049800 -0.993000
vn -0.102300 0.100300 -0.989700
vn 0.000000 -0.000000 -1.000000
vn -0.000000 0.020300 -0.999800
vn 0.170200 -0.179900 -0.968800
vn 0.154400 -0.206900 -0.966100
vn 0.057000 -0.156500 -0.986000
vn 0.044700 -0.007000 -0.999000
vn 0.035200 0.983700 -0.176500
vn -0.651700 0.744900 0.142800
vn 0.863200 -0.447500 0.233800
vn 0.041700 0.998800 0.025800
vn 0.194900 0.980800 0.000000
vn -0.331700 0.939700 0.083000
vn 0.410700 -0.911600 -0.018500
vn -0.965600 0.256300 -0.045000
vn -0.063000 -0.977900 0.199300
vn 0.869100 -0.475000 -0.138000
vn -0.484600 0.859100 -0.164400
vn 0.050600 -0.998100 -0.034200
vn 0.319600 -0.947300 -0.019300
vn -0.479400 0.877100 -0.027600
vn -0.063400 -0.993500 -0.094100
vn 0.247300 0.959500 -0.134800
vn -0.974700 0.205200 -0.088900
vn -0.577600 0.816300 0.000000
vn -0.801500 -0.595400 0.055900
vn 0.680500 0.731800 -0.036800
vn -0.901200 -0.426100 -0.079100
vn 0.866800 -0.496900 0.042300
vn -0.739100 0.673600 0.000000
vn 0.192600 0.965400 -0.175900
vn 0.523400 -0.836400 0.163000
vn -0.988800 0.098900 0.111700
vn 0.293300 0.955800 0.019400
vn -0.076000 -0.997100 0.003500
vn 0.849500 -0.471400 0.236800
vn 0.287400 0.955500 0.067100
vn 0.205600 -0.964600 0.165000
vn 0.995100 -0.035000 -0.092400
vn 0.640100 -0.768300 0.000000
vn 0.868700 -0.481200 -0.117900
vn -0.165600 -0.974400 0.151900
vn 0.020400 -0.999800 0.000000
vn -0.980700 0.086900 -0.175300
vn 0.076000 -0.995400 -0.058100
vn -0.116200 0.993000 0.020200
vn 0.444000 0.895900 0.013600
vn -0.877500 0.459600 0.137300
vn -0.446800 0.857500 -0.255000
vn 0.753100 0.655100 -0.060400
vn -0.978200 0.207800 0.004200
vn -0.391000 0.918200 0.063100
vn -0.651700 0.744900 0.142900
vn 0.041700 0.998800 0.025700
usemtl None
s off
f 2//1 5//1 3//1
f 7//2 10//2 9//2
f 12//3 14//3 13//3
f 17//4 19//4 18//4
f 22//5 24//5 23//5
f 27//6 30//6 29//6
f 32//7 35//7 33//7
f 37//8 39//8 38//8
f 44//9 43//9 41//9
f 47//10 50//10 48//10
f 51//11 54//11 52//11
f 57//12 59//12 60//12
f 63//13 64//13 62//13
f 68//14 69//14 67//14
f 71//15 74//15 72//15
f 77//16 78//16 80//16
f 83//17 84//17 82//17
f 87//18 88//18 90//18
f 30//19 74//19 29//19
f 11//20 58//20 56//20
f 32//21 80//21 35//21
f 1//22 43//22 45//22
f 19//23 65//23 64//23
f 10//24 54//24 9//24
f 25//25 67//25 70//25
f 48//26 89//26 88//26
f 31//27 77//27 32//27
f 15//28 57//28 60//28
f 38//29 84//29 83//29
f 2//30 41//30 5//30
f 22//31 66//31 67//31
f 48//32 86//32 46//32
f 11//33 57//33 12//33
f 28//34 74//34 73//34
f 36//35 83//35 81//35
f 18//36 64//36 63//36
f 2//37 45//37 44//37
f 8//38 54//38 53//38
f 26//39 73//39 71//39
f 47//40 90//40 50//40
f 16//41 63//41 61//41
f 34//42 80//42 79//42
f 40//43 82//43 85//43
f 6//44 53//44 51//44
f 24//45 70//45 69//45
f 47//46 86//46 87//46
f 27//47 75//47 30//47
f 14//48 60//48 59//48
f 36//49 82//49 37//49
f 5//50 42//50 4//50
f 20//51 62//51 65//51
f 10//52 52//52 55//52
f 27//53 71//53 72//53
f 17//54 61//54 62//54
f 33//55 79//55 78//55
f 7//56 51//56 52//56
f 24//57 68//57 23//57
f 50//58 89//58 49//58
f 13//59 59//59 58//59
f 31//60 78//60 76//60
f 40//61 84//61 39//61
f 21//62 68//62 66//62
f 3//63 42//63 43//63
f 3//1 1//1 2//1
f 3//1 5//1 4//1
f 9//2 6//2 7//2
f 6//2 9//2 8//2
f 13//3 11//3 12//3
f 12//3 15//3 14//3
f 18//4 16//4 17//4
f 17//4 20//4 19//4
f 23//5 21//5 22//5
f 22//5 25//5 24//5
f 29//6 26//6 27//6
f 26//6 29//6 28//6
f 33//7 31//7 32//7
f 33//7 35//7 34//7
f 38//8 36//8 37//8
f 37//8 40//8 39//8
f 41//9 43//9 42//9
f 43//9 44//9 45//9
f 48//10 46//10 47//10
f 48//10 50//10 49//10
f 54//11 51//11 53//11
f 52//11 54//11 55//11
f 57//12 58//12 59//12
f 58//12 57//12 56//12
f 62//13 61//13 63//13
f 62//13 64//13 65//13
f 67//14 66//14 68//14
f 67//14 69//14 70//14
f 74//15 71//15 73//15
f 72//15 74//15 75//15
f 80//16 78//16 79//16
f 78//16 77//16 76//16
f 82//17 81//17 83//17
f 82//17 84//17 85//17
f 90//18 88//18 89//18
f 88//18 87//18 86//18
f 75//19 74//19 30//19
f 13//64 58//64 11//64
f 77//21 80//21 32//21
f 3//65 43//65 1//65
f 20//23 65//23 19//23
f 55//24 54//24 10//24
f 22//25 67//25 25//25
f 49//26 89//26 48//26
f 76//27 77//27 31//27
f 12//28 57//28 15//28
f 39//29 84//29 38//29
f 44//30 41//30 2//30
f 21//31 66//31 22//31
f 88//32 86//32 48//32
f 56//33 57//33 11//33
f 29//34 74//34 28//34
f 38//35 83//35 36//35
f 19//36 64//36 18//36
f 1//37 45//37 2//37
f 9//38 54//38 8//38
f 28//39 73//39 26//39
f 87//40 90//40 47//40
f 18//41 63//41 16//41
f 35//42 80//42 34//42
f 37//43 82//43 40//43
f 8//44 53//44 6//44
f 25//45 70//45 24//45
f 46//46 86//46 47//46
f 72//47 75//47 27//47
f 15//48 60//48 14//48
f 81//49 82//49 36//49
f 41//50 42//50 5//50
f 17//51 62//51 20//51
f 7//52 52//52 10//52
f 26//53 71//53 27//53
f 16//54 61//54 17//54
f 34//55 79//55 33//55
f 6//56 51//56 7//56
f 69//57 68//57 24//57
f 90//58 89//58 50//58
f 14//59 59//59 13//59
f 33//60 78//60 31//60
f 85//61 84//61 40//61
f 23//62 68//62 21//62
f 4//63 42//63 3//63
