# Blender v2.73 (sub 0) OBJ File: 'objects.blend'
# www.blender.org
mtllib pool.mtl
o Plane.009_Plane.002
v 1.128882 -0.435230 -0.143562
v 4.000000 -0.435230 -0.143562
v 1.128882 2.508430 -0.143562
v 4.000000 2.508430 -0.143562
v 1.128882 1.036600 -0.143562
v 2.564441 -0.435230 -0.143562
v 4.000000 1.036600 -0.143562
v 2.564441 2.508430 -0.143562
v 2.564441 1.036600 -0.143562
vn 0.000000 0.000000 1.000000
usemtl None
s off
f 7//1 4//1 8//1
f 9//1 8//1 3//1
f 6//1 9//1 5//1
f 2//1 7//1 9//1
f 9//1 7//1 8//1
f 5//1 9//1 3//1
f 1//1 6//1 5//1
f 6//1 2//1 9//1
