# Blender v2.73 (sub 0) OBJ File: 'objects.blend'
# www.blender.org
mtllib tree-trunk.mtl
o Plane.007_Plane.004
v -0.101154 0.523341 0.122767
v 0.096826 0.523341 0.122767
v -0.101154 0.721321 0.122767
v 0.096826 0.721321 0.122767
v -0.067744 0.556751 0.830698
v 0.063416 0.556751 0.830698
v -0.067744 0.687910 0.830698
v 0.063416 0.687910 0.830698
v -0.054234 0.570260 1.316136
v 0.049906 0.570260 1.316136
v -0.054234 0.674401 1.316136
v 0.049906 0.674401 1.316136
v -0.002164 0.622331 1.872368
vn 0.000000 0.000000 -1.000000
vn 0.000000 0.999600 0.027800
vn 0.000000 0.998900 0.047100
vn 0.998900 0.000000 0.047100
vn 0.000000 -0.998900 0.047100
vn -0.998900 0.000000 0.047100
vn 0.999600 0.000000 0.027800
vn 0.000000 -0.999600 0.027800
vn -0.999600 0.000000 0.027800
vn 0.000000 0.995600 0.093200
vn 0.995600 0.000000 0.093200
vn 0.000000 -0.995600 0.093200
vn -0.995600 0.000000 0.093200
usemtl None
s off
f 3//1 4//1 2//1
f 7//2 11//2 12//2
f 4//3 3//3 7//3
f 4//4 8//4 6//4
f 2//5 6//5 5//5
f 1//6 5//6 7//6
f 8//7 12//7 10//7
f 6//8 10//8 9//8
f 5//9 9//9 11//9
f 12//10 11//10 13//10
f 10//11 12//11 13//11
f 9//12 10//12 13//12
f 11//13 9//13 13//13
f 1//1 3//1 2//1
f 8//2 7//2 12//2
f 8//3 4//3 7//3
f 2//4 4//4 6//4
f 1//5 2//5 5//5
f 3//6 1//6 7//6
f 6//7 8//7 10//7
f 5//8 6//8 9//8
f 7//9 5//9 11//9
